<svg width="1440" height="1024" viewBox="0 0 1440 1024" fill="none" xmlns="http://www.w3.org/2000/svg">
<rect width="1440" height="1024" rx="24" fill="white"/>
<g opacity="0.3">
<path d="M1083.29 105H386.107C354.02 105 328.008 131.012 328.008 163.099V860.284C328.008 892.371 354.02 918.383 386.107 918.383H1083.29C1115.38 918.383 1141.39 892.371 1141.39 860.284V163.099C1141.39 131.012 1115.38 105 1083.29 105Z" fill="#F4F6F8"/>
<g filter="url(#filter0_d_802_6308)">
<path d="M985.822 161.937H202.029C185.997 161.937 173 174.943 173 190.986V336.233C173 352.277 185.997 365.282 202.029 365.282H985.822C1001.85 365.282 1014.85 352.277 1014.85 336.233V190.986C1014.85 174.943 1001.85 161.937 985.822 161.937Z" fill="white"/>
</g>
<path d="M573.605 208.416H422.652C413.033 208.416 405.234 216.22 405.234 225.846C405.234 235.472 413.033 243.275 422.652 243.275H573.605C583.224 243.275 591.022 235.472 591.022 225.846C591.022 216.22 583.224 208.416 573.605 208.416Z" fill="#F4F6F8"/>
<path d="M678.11 283.944H422.652C413.033 283.944 405.234 291.748 405.234 301.374C405.234 311 413.033 318.804 422.652 318.804H678.11C687.73 318.804 695.528 311 695.528 301.374C695.528 291.748 687.73 283.944 678.11 283.944Z" fill="#DCE3F1"/>
<path d="M333.816 180.528H223.428C207.385 180.528 194.379 193.534 194.379 209.578V319.965C194.379 336.009 207.385 349.015 223.428 349.015H333.816C349.86 349.015 362.865 336.009 362.865 319.965V209.578C362.865 193.534 349.86 180.528 333.816 180.528Z" fill="url(#paint0_linear_802_6308)"/>
<path d="M265.386 283.828H277.006L277.133 279.354C277.133 273.475 280.84 271.941 286.081 270.279C291.337 268.784 295.964 265.618 299.262 261.259C302.56 256.901 304.349 251.587 304.358 246.122C304.474 242.785 303.895 239.461 302.658 236.359C301.422 233.257 299.556 230.446 297.177 228.103C294.798 225.761 291.958 223.937 288.838 222.748C285.718 221.56 282.385 221.032 279.051 221.198C275.526 221.121 272.023 221.761 268.754 223.078C265.484 224.396 262.517 226.364 260.031 228.863C257.544 231.362 255.592 234.34 254.291 237.617C252.991 240.893 252.369 244.399 252.465 247.923H264.479C264.434 245.977 264.777 244.042 265.489 242.231C266.201 240.42 267.267 238.769 268.625 237.375C269.983 235.981 271.606 234.872 273.398 234.114C275.19 233.355 277.116 232.962 279.062 232.957C280.817 232.855 282.574 233.132 284.212 233.77C285.85 234.407 287.332 235.39 288.557 236.651C289.782 237.912 290.721 239.422 291.31 241.078C291.899 242.735 292.125 244.498 291.972 246.25C291.894 249.084 290.909 251.819 289.16 254.051C287.411 256.283 284.991 257.895 282.258 258.648L278.04 260.321C273.91 261.316 270.305 263.826 267.938 267.353C265.57 270.88 264.614 275.167 265.258 279.366L265.386 283.828ZM271.138 311.448C272.275 311.489 273.41 311.301 274.474 310.895C275.537 310.489 276.509 309.875 277.331 309.087C278.154 308.3 278.81 307.355 279.261 306.31C279.712 305.264 279.948 304.139 279.957 303.001C279.947 301.863 279.709 300.739 279.257 299.695C278.806 298.651 278.149 297.708 277.327 296.922C276.505 296.135 275.534 295.522 274.471 295.117C273.408 294.712 272.274 294.524 271.138 294.565C270.001 294.524 268.867 294.712 267.804 295.117C266.741 295.522 265.77 296.135 264.948 296.922C264.126 297.708 263.469 298.651 263.018 299.695C262.566 300.739 262.328 301.863 262.318 303.001C262.327 304.139 262.564 305.264 263.014 306.31C263.465 307.355 264.121 308.3 264.944 309.087C265.766 309.875 266.738 310.489 267.801 310.895C268.865 311.301 270 311.489 271.138 311.448Z" fill="white"/>
<g filter="url(#filter1_d_802_6308)">
<path d="M1237.97 410.019H454.178C446.479 410.019 439.095 413.079 433.651 418.527C428.207 423.975 425.149 431.364 425.149 439.068V584.315C425.149 592.019 428.207 599.408 433.651 604.856C439.095 610.304 446.479 613.364 454.178 613.364H1237.97C1245.67 613.364 1253.05 610.304 1258.5 604.856C1263.94 599.408 1267 592.019 1267 584.315V439.068C1267 431.364 1263.94 423.975 1258.5 418.527C1253.05 413.079 1245.67 410.019 1237.97 410.019V410.019Z" fill="white"/>
</g>
<path d="M866.395 456.497H1017.35C1026.97 456.497 1034.77 464.301 1034.77 473.927C1034.77 483.553 1026.97 491.356 1017.35 491.356H866.395C856.776 491.356 848.978 483.553 848.978 473.927C848.978 464.301 856.776 456.497 866.395 456.497Z" fill="#F4F6F8"/>
<path d="M761.89 532.025H1017.35C1026.97 532.025 1034.77 539.829 1034.77 549.455C1034.77 559.081 1026.97 566.885 1017.35 566.885H761.89C752.27 566.885 744.472 559.081 744.472 549.455C744.472 539.829 752.27 532.025 761.89 532.025Z" fill="#DCE3F1"/>
<path d="M1220.55 427.448H1110.24C1094.21 427.448 1081.21 440.454 1081.21 456.497V566.885C1081.21 582.928 1094.21 595.934 1110.24 595.934H1220.55C1236.58 595.934 1249.58 582.928 1249.58 566.885V456.497C1249.58 440.454 1236.58 427.448 1220.55 427.448Z" fill="url(#paint1_linear_802_6308)"/>
<path d="M1152.17 530.747H1163.78L1163.91 526.274C1163.91 520.394 1167.61 518.86 1172.85 517.199C1178.1 515.703 1182.73 512.537 1186.02 508.179C1189.32 503.82 1191.11 498.507 1191.12 493.041C1191.23 489.704 1190.65 486.38 1189.42 483.278C1188.18 480.177 1186.32 477.365 1183.94 475.023C1181.56 472.68 1178.72 470.856 1175.61 469.667C1172.49 468.479 1169.16 467.951 1165.83 468.117C1162.3 468.04 1158.8 468.68 1155.54 469.997C1152.27 471.315 1149.3 473.283 1146.82 475.782C1144.33 478.281 1142.38 481.259 1141.08 484.536C1139.78 487.812 1139.16 491.318 1139.26 494.842H1151.26C1151.22 492.897 1151.56 490.961 1152.27 489.15C1152.98 487.339 1154.05 485.688 1155.41 484.294C1156.76 482.9 1158.39 481.791 1160.18 481.033C1161.97 480.274 1163.89 479.881 1165.84 479.876C1167.59 479.774 1169.35 480.051 1170.98 480.689C1172.62 481.326 1174.1 482.309 1175.32 483.57C1176.55 484.831 1177.49 486.341 1178.08 487.998C1178.66 489.654 1178.89 491.418 1178.74 493.169C1178.66 496.004 1177.68 498.738 1175.93 500.97C1174.18 503.203 1171.76 504.814 1169.03 505.567L1164.81 507.24C1160.69 508.235 1157.09 510.745 1154.72 514.272C1152.35 517.799 1151.4 522.087 1152.04 526.285L1152.17 530.747ZM1157.92 558.367C1159.05 558.408 1160.19 558.22 1161.25 557.814C1162.31 557.409 1163.29 556.794 1164.11 556.006C1164.93 555.219 1165.58 554.274 1166.04 553.229C1166.49 552.184 1166.72 551.058 1166.73 549.92C1166.72 548.782 1166.48 547.658 1166.03 546.614C1165.58 545.57 1164.92 544.627 1164.1 543.841C1163.28 543.055 1162.31 542.441 1161.25 542.036C1160.19 541.631 1159.05 541.443 1157.92 541.484C1156.78 541.443 1155.65 541.631 1154.59 542.036C1153.52 542.441 1152.55 543.055 1151.73 543.841C1150.91 544.627 1150.25 545.57 1149.8 546.614C1149.35 547.658 1149.11 548.782 1149.1 549.92C1149.11 551.058 1149.35 552.184 1149.8 553.229C1150.25 554.274 1150.91 555.219 1151.73 556.006C1152.55 556.794 1153.52 557.409 1154.58 557.814C1155.65 558.22 1156.78 558.408 1157.92 558.367Z" fill="white"/>
<g filter="url(#filter2_d_802_6308)">
<path d="M202.029 662.167H985.822C993.521 662.167 1000.9 665.228 1006.35 670.676C1011.79 676.124 1014.85 683.512 1014.85 691.217V836.464C1014.85 844.168 1011.79 851.557 1006.35 857.005C1000.9 862.453 993.521 865.513 985.822 865.513H202.029C194.33 865.513 186.947 862.453 181.503 857.005C176.058 851.557 173 844.168 173 836.464V691.217C173 683.512 176.058 676.124 181.503 670.676C186.947 665.228 194.33 662.167 202.029 662.167V662.167Z" fill="white"/>
</g>
<path d="M573.605 708.646H422.652C413.033 708.646 405.234 716.45 405.234 726.076C405.234 735.702 413.033 743.506 422.652 743.506H573.605C583.224 743.506 591.022 735.702 591.022 726.076C591.022 716.45 583.224 708.646 573.605 708.646Z" fill="#F4F6F8"/>
<path d="M678.11 784.175H422.652C413.033 784.175 405.234 791.978 405.234 801.604C405.234 811.231 413.033 819.034 422.652 819.034H678.11C687.73 819.034 695.528 811.231 695.528 801.604C695.528 791.978 687.73 784.175 678.11 784.175Z" fill="#DCE3F1"/>
<path d="M329.761 679.597H219.449C203.417 679.597 190.42 692.603 190.42 708.647V819.034C190.42 835.078 203.417 848.084 219.449 848.084H329.761C345.793 848.084 358.79 835.078 358.79 819.034V708.647C358.79 692.603 345.793 679.597 329.761 679.597Z" fill="url(#paint2_linear_802_6308)"/>
<path d="M261.379 782.897H272.991L273.118 778.423C273.118 772.543 276.822 771.01 282.059 769.348C287.313 767.853 291.936 764.686 295.232 760.328C298.527 755.97 300.315 750.656 300.325 745.191C300.44 741.854 299.861 738.529 298.626 735.428C297.39 732.326 295.525 729.515 293.148 727.172C290.771 724.829 287.933 723.006 284.815 721.817C281.697 720.628 278.367 720.1 275.034 720.266C271.512 720.189 268.012 720.829 264.745 722.147C261.477 723.465 258.512 725.433 256.027 727.932C253.543 730.431 251.592 733.409 250.292 736.685C248.992 739.961 248.371 743.468 248.467 746.992H260.473C260.427 745.046 260.77 743.111 261.482 741.3C262.193 739.488 263.259 737.837 264.616 736.443C265.973 735.05 267.595 733.941 269.386 733.182C271.177 732.424 273.101 732.03 275.046 732.025C276.8 731.924 278.555 732.201 280.192 732.838C281.829 733.476 283.31 734.458 284.534 735.72C285.758 736.981 286.696 738.491 287.285 740.147C287.874 741.803 288.099 743.567 287.946 745.318C287.869 748.153 286.884 750.888 285.136 753.12C283.389 755.352 280.971 756.963 278.239 757.717L274.024 759.39C269.897 760.385 266.294 762.894 263.929 766.422C261.563 769.949 260.608 774.236 261.251 778.435L261.379 782.897ZM267.127 810.517C268.264 810.557 269.397 810.369 270.46 809.964C271.524 809.558 272.495 808.943 273.316 808.156C274.138 807.368 274.793 806.424 275.244 805.378C275.695 804.333 275.931 803.208 275.94 802.069C275.93 800.932 275.692 799.808 275.241 798.764C274.789 797.72 274.134 796.777 273.312 795.99C272.491 795.204 271.52 794.59 270.458 794.185C269.395 793.781 268.263 793.593 267.127 793.633C265.991 793.593 264.858 793.781 263.796 794.185C262.733 794.59 261.763 795.204 260.941 795.99C260.12 796.777 259.464 797.72 259.013 798.764C258.561 799.808 258.323 800.932 258.313 802.069C258.322 803.208 258.558 804.333 259.009 805.378C259.46 806.424 260.115 807.368 260.937 808.156C261.759 808.943 262.73 809.558 263.793 809.964C264.856 810.369 265.99 810.557 267.127 810.517Z" fill="white"/>
</g>
<defs>
<filter id="filter0_d_802_6308" x="138.141" y="144.507" width="911.57" height="273.064" filterUnits="userSpaceOnUse" color-interpolation-filters="sRGB">
<feFlood flood-opacity="0" result="BackgroundImageFix"/>
<feColorMatrix in="SourceAlpha" type="matrix" values="0 0 0 0 0 0 0 0 0 0 0 0 0 0 0 0 0 0 127 0" result="hardAlpha"/>
<feOffset dy="17.4296"/>
<feGaussianBlur stdDeviation="17.4296"/>
<feColorMatrix type="matrix" values="0 0 0 0 0 0 0 0 0 0 0 0 0 0 0 0 0 0 0.161 0"/>
<feBlend mode="normal" in2="BackgroundImageFix" result="effect1_dropShadow_802_6308"/>
<feBlend mode="normal" in="SourceGraphic" in2="effect1_dropShadow_802_6308" result="shape"/>
</filter>
<filter id="filter1_d_802_6308" x="390.289" y="392.589" width="911.57" height="273.064" filterUnits="userSpaceOnUse" color-interpolation-filters="sRGB">
<feFlood flood-opacity="0" result="BackgroundImageFix"/>
<feColorMatrix in="SourceAlpha" type="matrix" values="0 0 0 0 0 0 0 0 0 0 0 0 0 0 0 0 0 0 127 0" result="hardAlpha"/>
<feOffset dy="17.4296"/>
<feGaussianBlur stdDeviation="17.4296"/>
<feColorMatrix type="matrix" values="0 0 0 0 0 0 0 0 0 0 0 0 0 0 0 0 0 0 0.161 0"/>
<feBlend mode="normal" in2="BackgroundImageFix" result="effect1_dropShadow_802_6308"/>
<feBlend mode="normal" in="SourceGraphic" in2="effect1_dropShadow_802_6308" result="shape"/>
</filter>
<filter id="filter2_d_802_6308" x="138.141" y="644.738" width="911.57" height="273.064" filterUnits="userSpaceOnUse" color-interpolation-filters="sRGB">
<feFlood flood-opacity="0" result="BackgroundImageFix"/>
<feColorMatrix in="SourceAlpha" type="matrix" values="0 0 0 0 0 0 0 0 0 0 0 0 0 0 0 0 0 0 127 0" result="hardAlpha"/>
<feOffset dy="17.4296"/>
<feGaussianBlur stdDeviation="17.4296"/>
<feColorMatrix type="matrix" values="0 0 0 0 0 0 0 0 0 0 0 0 0 0 0 0 0 0 0.161 0"/>
<feBlend mode="normal" in2="BackgroundImageFix" result="effect1_dropShadow_802_6308"/>
<feBlend mode="normal" in="SourceGraphic" in2="effect1_dropShadow_802_6308" result="shape"/>
</filter>
<linearGradient id="paint0_linear_802_6308" x1="169.544" y1="180.528" x2="370.883" y2="191.856" gradientUnits="userSpaceOnUse">
<stop stop-color="#FF7000"/>
<stop offset="0.9999" stop-color="#E2985E"/>
<stop offset="1" stop-color="#E2995F"/>
</linearGradient>
<linearGradient id="paint1_linear_802_6308" x1="1056.39" y1="427.448" x2="1257.59" y2="438.76" gradientUnits="userSpaceOnUse">
<stop stop-color="#FF7000"/>
<stop offset="0.9999" stop-color="#E2985E"/>
<stop offset="1" stop-color="#E2995F"/>
</linearGradient>
<linearGradient id="paint2_linear_802_6308" x1="165.602" y1="679.597" x2="366.803" y2="690.909" gradientUnits="userSpaceOnUse">
<stop stop-color="#FF7000"/>
<stop offset="0.9999" stop-color="#E2985E"/>
<stop offset="1" stop-color="#E2995F"/>
</linearGradient>
</defs>
</svg>
